<mxfile host="app.diagrams.net" modified="2024-05-30T08:37:54.206Z" agent="Mozilla/5.0 (X11; Ubuntu; Linux x86_64; rv:126.0) Gecko/20100101 Firefox/126.0" version="24.4.8" etag="sAwKbd0GNRVaPp1eCc7Y" type="github">
  <diagram name="第 1 页" id="VHazX8iWzBoezH-KzD8b">
    <mxGraphModel>
      <root>
        <mxCell id="0" />
        <mxCell id="1" parent="0" />
      </root>
    </mxGraphModel>
  </diagram>
</mxfile>
